<svg xmlns="http://www.w3.org/2000/svg" viewBox="0 0 512 512" fill="none">
  <defs>
    <linearGradient id="blueGrad" x1="256" y1="32" x2="256" y2="480" gradientUnits="userSpaceOnUse">
      <stop offset="0%" stop-color="#7DD3FC"/>
      <stop offset="50%" stop-color="#38BDF8"/>
      <stop offset="100%" stop-color="#0369A1"/>
    </linearGradient>
    <linearGradient id="goldGrad" x1="0" y1="0" x2="1" y2="0">
      <stop offset="0%" stop-color="#FCD34D"/>
      <stop offset="100%" stop-color="#F59E0B"/>
    </linearGradient>
    <mask id="counterMask">
      <rect width="512" height="512" fill="white"/>
      <polygon points="256,164 206,288 306,288" fill="black"/>
    </mask>
  </defs>
  <g mask="url(#counterMask)">
    <path d="M 256 42 Q 260 42 262 46 L 428 450 Q 432 458 425 464 L 369 464 Q 363 464 360 458 L 324 378 L 188 378 L 152 458 Q 149 464 143 464 L 87 464 Q 80 458 84 450 L 250 46 Q 252 42 256 42 Z" fill="url(#blueGrad)"/>
  </g>
  <g stroke-linecap="round" stroke-linejoin="round" fill="none">
    <polyline points="245,204 221,240 245,276" stroke="#FBBF24" stroke-width="13"/>
    <polyline points="267,204 291,240 267,276" stroke="#FBBF24" stroke-width="13"/>
  </g>
  <rect x="174" y="340" width="164" height="16" rx="8" fill="url(#goldGrad)"/>
  <rect x="348" y="334" width="8" height="28" rx="4" fill="#FBBF24" opacity="0.95"/>
</svg>
